<svg width="1019" height="640" viewBox="0 0 1019 640" fill="none" xmlns="http://www.w3.org/2000/svg">
<mask id="path-1-inside-1_347_742" fill="white">
<path d="M336 36C296.603 36 257.593 43.7597 221.195 58.8361C184.797 73.9126 151.726 96.0104 123.868 123.868C96.0104 151.726 73.9125 184.797 58.8361 221.195C43.7597 257.593 36 296.603 36 336L336 336L336 36Z"/>
</mask>
<path d="M336 36C296.603 36 257.593 43.7597 221.195 58.8361C184.797 73.9126 151.726 96.0104 123.868 123.868C96.0104 151.726 73.9125 184.797 58.8361 221.195C43.7597 257.593 36 296.603 36 336L336 336L336 36Z" stroke="#1E1E1E" stroke-width="8" mask="url(#path-1-inside-1_347_742)"/>
<path d="M693 604C732.397 604 771.407 596.24 807.805 581.164C844.203 566.087 877.274 543.99 905.132 516.132C932.99 488.274 955.087 455.203 970.164 418.805C985.24 382.407 993 343.397 993 304L693 304L693 604Z" fill="#1E1E1E"/>
<circle cx="709" cy="320" r="305" stroke="#1E1E1E" stroke-width="10"/>
<circle cx="320" cy="320" r="310" stroke="#1E1E1E" stroke-width="20"/>
<rect x="693" y="176" width="60" height="120" fill="#1E1E1E"/>
<rect x="774" y="147" width="58" height="148" stroke="#1E1E1E" stroke-width="2"/>
<rect x="853" y="116" width="60" height="180" fill="#1E1E1E"/>
</svg>
